<?xml version="1.0" standalone="no"?>
<!DOCTYPE svg PUBLIC "-//W3C//DTD SVG 20010904//EN"
 "http://www.w3.org/TR/2001/REC-SVG-20010904/DTD/svg10.dtd">
<svg version="1.0" xmlns="http://www.w3.org/2000/svg"
 width="512.000000pt" height="512.000000pt" viewBox="0 0 512.000000 512.000000"
 preserveAspectRatio="xMidYMid meet">

<g transform="translate(0.000000,512.000000) scale(0.100000,-0.100000)"
fill="#37003c" stroke="none">
<path d="M3220 4327 c-31 -34 -67 -78 -80 -97 -13 -19 -31 -42 -39 -51 -9 -9
-33 -36 -53 -60 -20 -24 -53 -61 -72 -83 -20 -21 -36 -44 -36 -50 0 -6 -16
-24 -35 -39 -19 -15 -35 -33 -35 -39 0 -6 -20 -35 -45 -64 -25 -28 -45 -55
-45 -57 0 -3 13 -5 29 -5 28 1 97 -25 151 -57 14 -8 40 -22 58 -30 38 -18 192
-169 192 -189 0 -7 9 -21 19 -30 11 -10 25 -32 32 -49 7 -18 15 -34 18 -37 11
-10 31 -50 31 -62 0 -7 10 -14 23 -14 12 -1 75 -7 140 -13 116 -11 118 -11
171 14 80 38 87 49 92 152 7 160 14 236 23 247 5 6 14 56 22 111 7 55 18 103
25 107 7 5 15 35 19 68 4 33 11 63 16 66 10 6 39 70 39 85 0 21 -35 6 -77 -33
-95 -90 -283 -289 -283 -300 0 -5 -22 -36 -50 -70 -27 -34 -50 -68 -50 -75 0
-7 -4 -13 -9 -13 -4 0 -14 51 -20 113 -16 143 -16 141 -23 152 -7 13 -30 220
-38 357 -1 10 -5 20 -11 23 -5 4 -9 24 -9 46 0 57 -24 51 -90 -24z"/>
<path d="M2129 4303 c-1 -10 -2 -30 -3 -45 -1 -15 -9 -35 -18 -45 -8 -10 -21
-49 -28 -88 -6 -38 -15 -74 -20 -80 -4 -5 -13 -37 -20 -70 -7 -33 -17 -66 -22
-72 -6 -7 -7 -13 -4 -13 4 0 2 -8 -3 -19 -6 -10 -15 -49 -21 -87 -6 -38 -17
-79 -25 -91 -14 -21 -36 -132 -29 -144 2 -4 -3 -12 -11 -19 -13 -10 -19 -10
-34 4 -19 17 -77 51 -141 81 -19 10 -51 29 -70 44 -19 15 -51 34 -70 44 -36
17 -50 26 -111 64 -19 13 -42 23 -51 23 -9 0 -18 6 -21 14 -3 8 -23 20 -44 27
-36 12 -75 35 -118 70 -11 9 -31 20 -45 24 -14 4 -32 13 -40 21 -36 31 -113
65 -124 54 -7 -7 -7 -17 3 -32 8 -12 16 -59 20 -104 3 -45 12 -88 19 -97 7 -8
15 -39 19 -68 3 -30 12 -63 19 -73 9 -14 10 -23 3 -32 -7 -9 -6 -19 5 -36 8
-13 18 -52 22 -88 4 -36 13 -74 20 -85 8 -11 14 -30 14 -43 0 -13 5 -32 11
-44 19 -35 2 -31 -48 10 -26 22 -59 43 -71 47 -13 4 -33 16 -43 26 -10 10 -28
19 -39 19 -11 0 -20 6 -20 13 -1 13 -129 77 -155 77 -8 0 -15 6 -15 13 0 7
-29 21 -65 31 -36 10 -68 23 -71 27 -3 5 -13 9 -23 9 -10 0 -24 7 -31 15 -7 8
-19 15 -26 15 -8 0 -14 -7 -14 -15 0 -8 5 -15 10 -15 6 0 10 -5 10 -10 0 -6
18 -28 40 -49 22 -21 40 -45 40 -53 0 -9 9 -18 20 -21 11 -3 20 -12 20 -21 0
-9 7 -24 15 -33 65 -76 83 -101 90 -123 4 -14 20 -42 36 -62 16 -20 29 -43 29
-51 0 -8 7 -20 15 -27 8 -6 14 -15 13 -18 -2 -16 24 -71 37 -75 7 -3 18 -29
25 -59 7 -29 17 -58 24 -63 8 -8 46 -75 62 -113 1 -2 24 8 50 22 27 13 72 36
101 50 28 14 54 30 58 35 3 6 12 11 20 11 8 0 31 11 51 25 20 14 45 25 55 25
11 0 19 7 19 15 0 8 6 12 14 9 8 -3 17 -1 21 5 3 6 14 11 23 11 10 0 34 11 54
25 20 14 50 25 66 25 17 0 32 6 36 15 3 8 23 18 45 21 23 4 46 13 52 20 6 8
18 14 27 14 23 0 85 23 100 38 7 6 26 12 41 12 16 0 43 10 62 23 30 20 34 29
37 72 2 28 7 54 13 60 5 5 9 21 9 36 0 15 5 31 10 34 6 3 10 17 10 31 0 13 4
24 9 24 9 0 71 96 71 111 0 5 5 9 11 9 6 0 40 27 76 60 61 58 95 80 173 115
19 8 42 20 51 24 9 5 37 12 63 16 25 4 46 10 46 13 0 3 -16 24 -35 48 -19 23
-35 45 -35 49 0 4 -20 31 -45 59 -25 29 -45 61 -45 69 0 9 -9 22 -20 29 -11 7
-20 18 -20 25 0 7 -9 17 -20 23 -11 6 -20 17 -20 25 0 7 -3 15 -7 17 -11 4
-63 75 -63 85 0 4 -18 27 -39 51 -40 44 -70 54 -72 25z"/>
<path d="M2575 3693 c-11 -3 -24 -9 -30 -13 -5 -4 -29 -10 -52 -14 -69 -10
-167 -71 -248 -154 -41 -42 -75 -80 -75 -84 0 -3 -5 -19 -12 -35 -6 -15 -10
-32 -9 -37 1 -4 -3 -13 -8 -20 -9 -11 -22 -83 -26 -146 -1 -19 -3 -40 -4 -47
0 -6 -13 -16 -28 -22 -16 -6 -35 -15 -43 -20 -14 -8 -81 -40 -293 -140 -48
-22 -90 -41 -93 -41 -3 0 -18 -8 -32 -19 -15 -10 -38 -22 -52 -26 -24 -7 -87
-36 -295 -135 -194 -93 -241 -115 -294 -135 l-53 -20 1 -140 c1 -77 4 -149 6
-160 2 -11 7 -46 9 -77 6 -63 15 -108 26 -123 4 -5 13 -39 20 -75 7 -36 19
-74 27 -85 7 -11 13 -27 13 -35 0 -9 17 -52 39 -95 21 -44 44 -96 52 -115 7
-19 19 -39 26 -43 7 -4 13 -13 13 -18 0 -6 14 -30 30 -54 17 -24 30 -46 30
-50 0 -8 80 -107 131 -162 21 -23 39 -45 39 -50 0 -4 15 -18 33 -31 19 -12 40
-34 47 -47 7 -14 18 -25 23 -25 5 0 35 -23 66 -52 52 -48 188 -142 256 -178
17 -9 39 -21 50 -27 82 -46 197 -94 249 -104 33 -7 66 -16 72 -20 6 -5 55 -14
110 -20 54 -6 109 -16 121 -21 29 -14 477 -15 495 -1 7 5 69 15 138 22 69 8
130 17 135 21 6 4 46 13 90 20 44 7 91 19 105 25 14 7 52 18 84 25 33 7 67 16
75 20 9 5 23 11 32 13 16 5 57 82 80 152 7 22 19 49 26 60 7 11 13 26 13 33 0
8 8 26 18 40 10 15 24 46 32 70 7 24 17 45 21 48 10 6 44 80 63 136 9 26 20
56 25 65 5 10 21 45 36 78 15 33 35 78 46 100 10 22 19 44 19 48 0 8 19 50 89
197 14 30 26 57 27 60 0 3 6 19 13 35 7 17 17 40 22 52 8 22 76 59 127 69 16
3 63 35 105 70 79 66 142 156 154 218 3 17 10 37 16 44 6 8 5 17 -3 27 -6 8
-9 19 -6 24 11 17 -22 150 -44 180 -11 16 -20 34 -20 40 0 5 -39 51 -87 102
l-87 91 -1 107 c0 90 -3 113 -23 153 -36 73 -94 126 -149 134 -87 13 -150 -2
-293 -73 -74 -37 -145 -75 -158 -84 -51 -39 -112 -61 -150 -55 -111 17 -124
18 -135 7 -35 -35 -117 19 -117 77 0 8 -21 58 -47 111 -40 79 -63 111 -133
181 -47 47 -96 90 -110 97 -98 45 -118 53 -131 53 -8 0 -20 5 -26 11 -11 11
-173 20 -208 12z m197 -154 c34 -11 82 -32 105 -46 41 -24 153 -137 153 -155
0 -5 10 -25 23 -46 40 -64 87 -212 67 -212 -3 0 -17 21 -30 48 -34 69 -112
164 -172 209 -50 37 -165 83 -208 83 -28 0 -34 17 -10 30 71 38 -93 32 -205
-8 -75 -26 -115 -52 -183 -116 -43 -41 -43 -41 -32 -11 36 96 131 180 248 220
87 29 166 31 244 4z m10 -207 c7 -7 20 -12 29 -12 10 0 19 -3 21 -7 2 -5 19
-16 38 -26 41 -21 75 -68 85 -117 4 -19 16 -54 27 -78 14 -31 21 -66 22 -119
1 -74 1 -75 -36 -109 -41 -37 -58 -43 -58 -19 0 21 -13 19 -70 -10 -91 -46
-200 -62 -274 -41 -61 18 -115 70 -159 154 -29 55 -70 188 -63 201 3 5 -1 14
-9 21 -8 7 -15 18 -15 24 0 18 55 64 85 72 15 4 30 14 32 23 2 9 25 26 51 39
42 20 59 22 165 19 73 -2 122 -8 129 -15z m1313 -152 c14 -22 25 -41 25 -44 0
-13 -35 -14 -60 -1 -71 36 -170 1 -276 -98 -41 -38 -74 -75 -74 -83 0 -10 -12
-14 -42 -13 -67 1 -246 23 -254 32 -4 4 -25 7 -46 7 -27 0 -38 4 -36 13 3 8
42 13 137 15 125 2 135 4 173 30 72 48 111 70 213 121 122 60 120 59 172 60
39 1 45 -2 68 -39z m-1960 -220 c8 -14 100 -60 118 -60 8 0 20 -7 28 -16 21
-26 -7 -34 -111 -33 l-95 2 -195 -90 c-107 -49 -297 -136 -421 -192 l-227
-102 -10 -42 c-6 -23 -9 -43 -6 -46 5 -6 86 10 239 47 117 29 142 31 129 11
-3 -5 -92 -52 -197 -105 -106 -53 -197 -100 -203 -105 -15 -13 -23 -72 -26
-186 l-1 -93 -19 41 c-10 23 -21 60 -24 83 -4 22 -10 46 -14 51 -10 12 -28
173 -32 280 l-3 80 71 35 c39 19 116 56 170 82 54 26 158 75 229 108 72 34
155 73 185 87 61 27 200 93 300 141 68 32 104 39 115 22z m2130 -571 c-34 -34
-116 -82 -190 -109 -53 -20 -110 -30 -203 -36 -87 -6 -102 -10 -102 -24 0 -22
23 -42 90 -74 30 -15 59 -31 63 -35 4 -4 0 -23 -9 -42 -30 -60 -34 -68 -50
-117 -21 -62 -75 -172 -86 -172 -4 0 -8 13 -8 28 0 15 -4 32 -8 38 -4 5 -14
26 -21 47 -16 49 -100 128 -156 147 -24 8 -47 18 -51 23 -11 10 -231 9 -252
-2 -9 -5 -50 -17 -90 -26 -40 -9 -85 -23 -100 -31 -15 -7 -32 -14 -39 -14 -6
0 -55 -22 -110 -50 -54 -27 -104 -50 -110 -50 -7 0 -13 -4 -13 -10 0 -5 -15
-17 -32 -25 -57 -27 -91 -49 -160 -102 -37 -29 -71 -53 -76 -53 -5 0 -19 -12
-33 -26 -13 -14 -33 -30 -44 -35 -11 -6 -42 -23 -70 -40 -27 -16 -66 -36 -85
-45 -19 -8 -44 -19 -55 -24 -11 -5 -33 -14 -50 -20 -59 -21 -85 -35 -85 -45 0
-15 33 -33 75 -41 38 -7 38 -7 14 -19 -13 -7 -53 -20 -89 -30 -36 -9 -74 -21
-85 -25 -11 -5 -47 -14 -80 -21 -33 -6 -66 -16 -73 -22 -8 -6 -61 -11 -125
-11 -91 -1 -117 2 -137 17 -13 9 -38 17 -55 17 -38 0 -153 96 -136 113 7 7 19
6 38 -3 16 -7 42 -13 58 -14 17 -1 73 -6 125 -10 148 -13 397 19 408 52 2 7
-2 12 -9 12 -19 0 -79 49 -79 65 0 8 21 18 53 26 28 6 59 15 67 19 122 60 176
91 235 130 74 51 185 146 185 160 0 4 -21 11 -46 15 -99 14 -294 150 -294 204
0 5 12 3 27 -4 15 -8 53 -19 83 -25 30 -6 62 -15 71 -19 8 -5 75 -15 149 -21
105 -10 161 -10 269 0 75 6 141 15 146 19 6 5 37 13 69 20 33 6 69 17 80 25
12 7 37 17 56 21 19 4 44 12 55 19 11 7 43 19 70 26 28 8 77 28 110 46 33 17
74 35 90 39 17 3 59 20 95 36 36 17 74 35 85 40 11 5 42 13 70 19 27 6 54 15
60 19 5 4 30 13 55 20 25 6 54 16 65 21 34 16 145 27 285 29 l134 1 -39 -41z"/>
<path d="M2483 3269 c-39 -38 -43 -47 -43 -90 0 -26 5 -51 10 -54 6 -3 10 -16
10 -27 0 -110 136 -241 218 -209 15 5 45 15 68 21 28 7 63 30 108 71 l66 61 0
67 c0 55 -4 71 -20 86 -11 10 -20 24 -20 32 0 7 -12 18 -27 24 -15 6 -30 13
-33 17 -20 27 -63 37 -175 40 l-120 4 -42 -43z m257 -101 c46 -11 90 -42 90
-63 0 -23 -56 -64 -96 -71 -83 -13 -162 36 -171 107 -4 30 -2 38 13 41 28 6
113 -1 164 -14z"/>
</g>
</svg>
