<?xml version="1.0" standalone="no"?>
<!DOCTYPE svg PUBLIC "-//W3C//DTD SVG 20010904//EN"
 "http://www.w3.org/TR/2001/REC-SVG-20010904/DTD/svg10.dtd">
<svg version="1.0" xmlns="http://www.w3.org/2000/svg"
 width="512.000000pt" height="512.000000pt" viewBox="0 0 512.000000 512.000000"
 preserveAspectRatio="xMidYMid meet">
<metadata>
Created by potrace 1.14, written by Peter Selinger 2001-2017
</metadata>
<g transform="translate(0.000000,512.000000) scale(0.100000,-0.100000)"
fill="#000000" stroke="none">
<path d="M2475 4963 c0 -87 -1 -163 -2 -168 -3 -10 -47 -16 -150 -19 -29 0
-53 -4 -53 -8 0 -4 -8 -7 -17 -6 -58 2 -373 -72 -400 -94 -7 -5 -16 -7 -22 -4
-5 3 -11 2 -13 -4 -1 -5 -12 -11 -23 -13 -26 -5 -44 -12 -142 -57 -45 -21 -84
-35 -87 -32 -3 3 -6 0 -6 -6 0 -7 -7 -12 -15 -12 -8 0 -15 -3 -15 -7 0 -5 -20
-17 -45 -28 -25 -11 -45 -23 -45 -28 0 -4 -4 -5 -10 -2 -5 3 -10 2 -10 -3 0
-5 -10 -14 -22 -21 -62 -32 -74 -41 -191 -131 -99 -76 -235 -204 -306 -287
-13 -15 -39 -45 -57 -65 -19 -21 -31 -38 -27 -38 4 -1 -2 -9 -14 -19 -12 -10
-19 -21 -16 -25 3 -3 -2 -8 -11 -12 -9 -3 -16 -12 -16 -20 0 -8 -4 -14 -10
-14 -5 0 -10 -6 -10 -14 0 -7 -11 -25 -25 -40 -14 -15 -25 -31 -25 -35 0 -5
-7 -14 -15 -21 -9 -7 -13 -15 -11 -18 3 -3 -3 -17 -13 -31 -45 -63 -190 -381
-174 -381 3 0 0 -7 -7 -15 -7 -8 -9 -15 -5 -15 4 0 3 -6 -3 -12 -11 -14 -60
-200 -69 -263 -3 -22 -10 -48 -15 -59 -8 -14 -7 -17 3 -11 8 5 10 4 5 -4 -10
-16 -24 -118 -29 -216 -1 -16 -4 -32 -8 -35 -4 -3 -84 -5 -178 -4 l-171 0 0
-88 0 -88 175 0 c133 0 175 -3 176 -12 1 -7 2 -21 2 -31 0 -9 2 -17 6 -17 3 0
6 -25 6 -55 -1 -30 3 -55 8 -55 5 0 4 -7 -3 -15 -7 -8 -8 -15 -3 -15 5 0 9 -8
10 -17 1 -23 11 -98 13 -98 1 0 4 -11 5 -25 17 -119 90 -345 161 -495 21 -44
37 -83 36 -87 -1 -5 2 -8 7 -8 5 0 13 -10 17 -22 4 -13 22 -47 40 -76 19 -29
34 -57 34 -62 0 -6 5 -10 10 -10 6 0 10 -7 10 -15 0 -8 5 -15 10 -15 6 0 10
-4 10 -10 0 -5 16 -31 36 -57 20 -27 44 -60 55 -74 46 -62 80 -99 180 -198
118 -119 154 -151 170 -151 5 0 8 -4 5 -9 -4 -5 7 -15 23 -22 16 -7 27 -17 25
-21 -3 -4 1 -8 9 -8 8 0 22 -9 32 -20 10 -11 24 -20 32 -20 8 0 11 -5 7 -12
-5 -8 -2 -9 9 -5 10 3 17 2 17 -3 0 -17 218 -140 360 -202 38 -17 102 -42 110
-44 3 0 12 -4 20 -7 8 -3 40 -13 70 -22 30 -10 62 -19 70 -22 22 -9 32 -11 65
-18 17 -3 46 -10 65 -15 19 -5 51 -11 70 -14 19 -3 44 -7 55 -10 19 -3 65 -9
190 -22 33 -3 62 -10 65 -14 3 -5 5 -87 4 -184 l0 -176 88 0 88 0 0 185 c0
185 0 185 23 186 12 0 36 2 52 4 17 2 57 6 90 9 33 3 71 8 85 11 13 2 42 7 65
11 47 7 70 12 70 14 0 1 9 3 20 5 11 2 31 6 45 10 14 4 32 8 40 10 8 1 22 5
30 8 8 2 64 22 125 42 60 21 124 46 142 56 18 10 33 16 33 13 0 -4 6 -1 13 5
8 6 16 9 19 6 3 -3 11 1 18 10 7 8 21 15 30 15 10 0 20 4 22 8 2 4 28 21 58
36 87 45 268 168 322 218 10 10 18 16 18 13 0 -3 23 17 50 44 28 27 50 47 50
45 0 -13 180 185 250 276 41 52 118 168 146 220 10 19 25 39 32 43 6 4 12 15
12 23 0 8 7 25 15 37 24 37 103 225 97 231 -3 3 1 6 8 6 7 0 11 2 8 6 -3 3 3
28 14 57 11 29 27 77 34 107 21 79 22 85 24 88 2 1 4 11 5 22 1 11 4 21 5 23
1 1 4 11 5 22 2 11 6 34 9 50 13 63 34 231 35 288 l1 27 175 0 175 0 0 88 0
88 -165 -1 c-91 0 -170 2 -175 5 -6 4 -12 31 -14 61 -6 66 -15 155 -21 189 -2
14 -7 41 -10 60 -3 19 -18 80 -32 135 -14 55 -26 110 -27 122 0 12 -3 19 -5
17 -4 -4 -27 51 -36 86 -12 47 -113 267 -126 275 -5 4 -7 11 -4 16 4 5 1 9 -4
9 -6 0 -11 6 -11 13 0 7 -6 19 -12 26 -7 6 -13 15 -13 19 -1 13 -39 72 -47 72
-4 0 -8 5 -8 11 0 14 -56 95 -92 134 -15 17 -28 34 -28 38 0 9 -39 53 -112
128 -20 20 -34 40 -30 43 3 3 1 6 -4 6 -6 0 -35 24 -65 53 -30 28 -75 68 -98
87 -24 19 -49 41 -56 48 -8 6 -16 12 -20 12 -3 0 -15 9 -27 20 -25 23 -136
100 -145 100 -3 0 -21 11 -40 26 -18 14 -33 22 -33 19 0 -4 -13 3 -29 14 -16
12 -34 21 -40 21 -6 0 -11 5 -11 10 0 6 -5 10 -12 10 -6 0 -41 14 -77 31 -36
17 -93 42 -126 54 -33 13 -73 29 -90 36 -16 7 -37 13 -45 14 -8 1 -22 5 -30 8
-23 10 -182 48 -215 52 -16 2 -30 4 -30 5 0 5 -121 23 -165 24 -19 1 -39 4
-45 6 -5 3 -29 5 -52 5 l-43 -1 0 168 0 168 -88 0 -88 0 1 -157z m-3 -376 c2
-12 3 -151 3 -309 l-1 -288 88 0 88 0 0 310 c0 212 3 310 11 310 5 0 7 -6 3
-12 -6 -10 -4 -10 8 0 9 7 28 10 44 7 16 -3 54 -8 84 -11 74 -7 97 -11 153
-22 26 -5 47 -7 47 -4 0 2 6 0 13 -5 6 -6 29 -13 50 -17 58 -11 245 -74 301
-102 28 -14 53 -26 56 -26 13 -2 96 -44 102 -53 5 -7 8 -7 8 0 0 6 4 5 8 -2 4
-6 14 -13 22 -15 8 -2 19 -7 25 -11 5 -4 51 -35 100 -67 50 -32 102 -69 117
-82 14 -13 41 -34 59 -48 44 -34 215 -205 264 -264 22 -26 46 -54 53 -61 6 -7
12 -18 12 -24 0 -6 4 -11 8 -11 5 0 15 -12 23 -27 8 -16 16 -30 19 -33 19 -17
78 -113 113 -185 11 -22 23 -42 27 -45 5 -3 10 -14 12 -25 1 -11 6 -22 9 -25
9 -8 90 -213 92 -232 1 -10 4 -18 7 -18 4 0 7 -6 7 -12 1 -7 8 -40 17 -73 9
-33 19 -71 21 -85 3 -14 7 -36 10 -50 13 -65 17 -87 19 -110 1 -14 4 -29 6
-35 3 -5 5 -44 5 -85 l0 -74 -305 -1 -305 0 0 -75 c-1 -41 1 -81 3 -87 3 -10
74 -13 307 -13 l303 0 4 -30 c3 -17 2 -30 -2 -30 -4 0 -7 -15 -7 -32 1 -64
-13 -154 -39 -263 -9 -38 -17 -76 -17 -82 0 -7 -3 -13 -6 -13 -3 0 -7 -14 -8
-32 -1 -17 -7 -35 -14 -38 -6 -4 -10 -10 -9 -14 2 -10 -12 -69 -21 -86 -4 -8
-25 -55 -45 -105 -21 -49 -41 -92 -44 -95 -4 -3 -11 -16 -15 -30 -4 -14 -13
-28 -19 -32 -6 -4 -12 -11 -12 -15 -5 -26 -18 -53 -25 -53 -5 0 -9 -7 -9 -15
0 -8 -5 -15 -11 -15 -5 0 -8 -4 -4 -9 3 -6 -1 -13 -9 -18 -8 -4 -16 -14 -18
-22 -3 -16 -2 -14 -96 -134 -38 -48 -91 -111 -117 -140 l-48 -52 -13 40 c-7
22 -36 114 -65 205 -29 91 -51 165 -50 165 2 0 -7 24 -18 53 -12 30 -19 57
-16 61 5 10 -36 31 -130 67 -38 14 -76 31 -82 36 -7 6 -13 8 -13 5 0 -4 -26 4
-57 17 -51 21 -87 36 -103 41 -48 16 -61 27 -55 43 27 64 45 180 49 317 l2 80
145 2 144 2 163 -166 164 -166 68 69 69 69 -192 195 -192 196 -170 -1 c-93 -1
-177 1 -185 3 -13 3 -16 25 -15 139 l0 137 120 48 c65 26 126 49 134 51 9 1
18 4 21 7 3 3 27 14 55 25 46 19 50 24 70 80 11 33 22 65 23 70 1 6 12 42 25
80 12 39 21 76 20 83 0 6 3 12 8 12 5 0 8 3 7 8 -1 4 12 51 30 105 18 54 32
106 32 115 0 13 -22 23 -85 42 -47 14 -85 29 -86 35 0 8 -18 -40 -33 -90 -2
-5 -6 -17 -9 -25 -3 -8 -24 -76 -47 -150 -66 -215 -55 -196 -127 -225 -35 -14
-69 -25 -77 -25 -7 0 -18 -6 -24 -13 -6 -7 -22 -13 -35 -15 -23 -1 -24 1 -23
49 2 59 7 58 -147 57 -59 0 -110 1 -112 3 -2 3 -5 67 -6 144 -2 159 -21 254
-69 349 -47 91 -116 173 -190 226 -28 20 -30 26 -30 81 0 84 18 121 70 146
l43 20 -1 89 0 89 -41 1 c-23 1 -44 -3 -47 -7 -3 -5 -12 -9 -20 -9 -25 0 -110
-63 -135 -99 -34 -51 -59 -117 -62 -162 l-2 -40 -50 7 c-65 9 -116 9 -192 0
-62 -7 -63 -7 -64 19 -1 14 -2 28 -3 33 -1 4 -6 22 -10 40 -11 45 -27 74 -62
114 -47 53 -67 66 -136 91 -90 33 -96 29 -95 -81 l1 -88 37 -16 c54 -23 71
-55 73 -138 2 -69 1 -71 -29 -90 -46 -28 -126 -118 -168 -187 -21 -34 -37 -63
-37 -66 0 -3 -5 -18 -12 -34 -6 -15 -12 -30 -13 -33 -23 -92 -28 -135 -29
-254 0 -78 -4 -143 -8 -146 -4 -3 -63 -6 -132 -5 l-125 1 3 -43 c4 -60 -5 -69
-46 -52 -18 7 -35 14 -38 15 -3 0 -18 6 -35 13 -16 6 -49 19 -72 28 -24 9 -43
22 -43 30 0 8 -22 80 -48 161 -27 81 -57 174 -66 207 -10 33 -23 63 -28 66 -9
6 -161 -41 -173 -53 -4 -4 6 -49 23 -100 17 -51 55 -172 86 -269 l56 -175 53
-21 c28 -12 114 -45 189 -74 134 -52 138 -55 139 -84 0 -16 1 -45 2 -63 1 -17
-1 -32 -5 -32 -4 0 -3 -12 0 -27 4 -16 7 -41 6 -58 -4 -78 18 -70 -191 -70
-177 1 -189 0 -206 -20 -10 -11 -89 -92 -175 -180 -86 -88 -163 -168 -171
-178 -12 -16 -7 -24 54 -84 l69 -66 162 167 163 166 147 -1 146 0 -5 -25 c-2
-13 -1 -24 2 -24 3 0 6 -39 6 -86 0 -47 3 -88 7 -90 3 -2 4 -12 2 -22 -3 -9 6
-51 19 -93 l24 -76 -41 -18 c-23 -10 -61 -26 -86 -35 -49 -18 -75 -29 -160
-63 -30 -12 -58 -21 -62 -19 -5 1 -8 -2 -8 -8 0 -6 -3 -9 -7 -8 -5 2 -22 -3
-39 -10 -30 -13 -54 -47 -54 -77 0 -8 -6 -29 -14 -47 -7 -18 -18 -49 -24 -68
-6 -19 -31 -101 -57 -182 l-46 -147 -33 32 c-17 18 -31 35 -29 38 2 4 -3 9
-10 12 -16 6 -137 163 -137 177 0 6 -4 10 -10 10 -5 0 -10 7 -10 15 0 8 -3 15
-7 15 -9 0 -45 59 -49 79 -1 8 -7 17 -12 20 -19 13 -122 230 -154 326 -13 39
-26 72 -31 73 -4 2 -5 7 -2 12 3 5 1 20 -5 35 -10 26 -22 79 -23 103 0 6 -3
12 -7 12 -4 0 -7 6 -7 13 0 20 -14 110 -17 116 -2 3 -7 40 -11 81 -3 41 -9 83
-12 94 -4 13 -2 16 8 11 11 -6 12 -5 2 6 -36 37 -24 39 297 39 l311 0 -3 88
-3 87 -305 0 -305 1 1 34 c1 52 19 215 23 215 2 0 4 16 7 35 6 43 12 75 15 75
1 0 3 9 5 20 4 31 11 58 23 88 6 15 10 31 9 35 -1 4 4 21 11 37 7 17 14 38 17
49 2 10 8 24 14 31 6 7 10 17 9 21 -7 28 176 382 203 392 4 2 6 8 2 13 -3 5 2
12 10 15 9 3 16 11 16 16 0 5 17 31 38 56 20 26 40 51 45 57 58 77 210 228
310 309 92 73 276 194 286 187 2 -1 7 1 10 6 11 18 228 115 316 143 22 7 45
16 51 21 6 5 13 6 16 4 3 -3 18 -1 34 6 35 13 55 18 159 39 71 14 103 19 165
26 30 3 56 7 57 8 1 0 19 2 41 3 34 2 40 -1 44 -20z m-673 -2937 c3 -3 24 -27
45 -54 118 -146 298 -264 461 -301 6 -2 29 -8 53 -14 23 -7 47 -9 52 -6 5 3
11 2 13 -2 6 -9 223 -8 274 0 52 9 174 48 223 70 39 18 122 68 169 102 34 24
171 167 187 195 10 16 23 30 29 30 5 0 89 -31 185 -69 167 -65 176 -70 187
-102 19 -52 126 -392 129 -407 1 -8 4 -15 6 -16 2 -2 40 9 85 24 l81 27 -16
-23 c-9 -13 -20 -24 -24 -24 -3 0 -19 -12 -35 -28 -15 -15 -48 -43 -73 -62
-25 -19 -47 -37 -50 -40 -16 -17 -160 -110 -160 -103 0 4 -4 3 -8 -3 -20 -31
-337 -182 -389 -186 -7 -1 -13 -6 -13 -11 0 -6 -3 -8 -6 -5 -3 3 -39 -4 -80
-17 -41 -13 -74 -21 -74 -19 0 2 -10 0 -23 -5 -22 -9 -45 -13 -134 -27 -21 -3
-49 -8 -63 -10 -14 -3 -53 -7 -88 -9 -35 -1 -66 -5 -69 -9 -19 -19 -23 36 -23
309 0 233 -3 304 -12 307 -11 3 -114 3 -154 -1 -7 -1 -10 -95 -10 -298 1 -218
-2 -300 -11 -312 -9 -12 -12 -13 -13 -2 0 11 -3 11 -15 1 -8 -7 -15 -9 -15 -4
0 5 -19 10 -43 11 -49 3 -121 11 -157 17 -14 3 -38 8 -55 11 -61 11 -130 28
-140 34 -5 3 -19 7 -30 8 -11 2 -36 9 -55 15 -19 7 -38 11 -42 10 -5 -1 -8 2
-8 6 0 4 -21 14 -47 21 -27 8 -64 22 -83 31 -19 10 -38 18 -42 19 -4 1 -28 12
-52 26 -24 13 -46 21 -50 18 -3 -4 -6 -2 -6 3 0 6 -22 21 -50 35 -27 13 -50
27 -50 32 0 4 -7 7 -15 7 -8 0 -15 5 -15 10 0 6 -7 10 -15 10 -8 0 -24 9 -35
20 -11 11 -23 20 -26 20 -7 0 -152 112 -204 158 -33 29 -33 31 -10 28 14 -2
37 -8 52 -14 30 -12 29 -13 68 113 12 39 25 77 28 85 3 8 6 18 7 23 2 4 3 8 4
10 2 1 4 11 7 22 2 11 16 58 31 105 32 97 23 90 193 155 25 9 59 23 76 32 17
8 37 15 45 17 8 1 30 9 49 18 24 10 36 11 39 4 2 -6 7 -13 10 -16z"/>
</g>
</svg>
