<?xml version="1.0" standalone="no"?>
<!DOCTYPE svg PUBLIC "-//W3C//DTD SVG 20010904//EN"
 "http://www.w3.org/TR/2001/REC-SVG-20010904/DTD/svg10.dtd">
<svg version="1.0" xmlns="http://www.w3.org/2000/svg"
 width="250.000000pt" height="250.000000pt" viewBox="0 0 250.000000 250.000000"
 preserveAspectRatio="xMidYMid meet">
<metadata>
Created by potrace 1.14, written by Peter Selinger 2001-2017
</metadata>
<g transform="translate(0.000000,250.000000) scale(0.100000,-0.100000)"
fill="#000000" stroke="none">
<path d="M1116 2349 c-262 -34 -492 -152 -676 -346 -469 -493 -391 -1281 167
-1686 263 -190 639 -254 956 -162 334 97 607 344 737 668 135 337 92 727 -113
1035 -235 352 -655 544 -1071 491z m-396 -699 l0 -260 135 0 135 0 0 -55 0
-55 -195 0 -195 0 0 315 0 315 60 0 60 0 0 -260z m690 210 l0 -50 -90 0 -90 0
0 -265 0 -265 -60 0 -60 0 0 265 0 265 -85 0 -85 0 0 50 0 50 235 0 235 0 0
-50z m-420 -730 l0 -50 -135 0 -135 0 0 -80 0 -80 120 0 120 0 0 -55 0 -55
-120 0 -120 0 0 -127 0 -128 -60 0 -60 0 0 313 0 312 195 0 195 0 0 -50z m415
31 c75 -35 105 -85 105 -178 0 -80 -29 -136 -88 -170 -40 -24 -60 -28 -144
-31 l-98 -4 0 -112 0 -111 -65 3 -65 4 0 309 0 309 158 0 c131 0 164 -3 197
-19z m295 -241 l0 -260 110 0 110 0 0 -52 0 -53 -170 3 -170 3 0 309 0 310 60
0 60 0 0 -260z"/>
<path d="M1180 986 l0 -96 74 0 c58 0 79 4 98 20 48 38 42 125 -10 150 -15 7
-57 15 -94 18 l-68 5 0 -97z"/>
</g>
</svg>
